<svg version="1.1" id="Layer_1" xmlns="http://www.w3.org/2000/svg" xmlns:xlink="http://www.w3.org/1999/xlink" x="0px" y="0px"
	 width="100%" viewBox="0 0 414 349" enable-background="new 0 0 414 349" xml:space="preserve">
<path fill="#F8FAF8" opacity="1.000000" stroke="none" 
	d="
M263.000000,350.000000 
	C175.333359,350.000000 88.166718,350.000000 1.000058,350.000000 
	C1.000039,233.666733 1.000039,117.333458 1.000020,1.000137 
	C138.999893,1.000091 276.999786,1.000091 414.999756,1.000046 
	C414.999847,117.333199 414.999847,233.666397 414.999939,349.999817 
	C364.500000,350.000000 314.000000,350.000000 263.000000,350.000000 
M108.886581,143.882294 
	C108.886581,143.882294 108.844330,143.713608 108.292274,143.887131 
	C108.098328,144.207855 107.904381,144.528595 107.871246,144.871994 
	C107.871246,144.871994 107.842522,144.712158 107.290970,144.886337 
	C107.097115,145.206924 106.903252,145.527512 106.696480,145.825348 
	C106.696480,145.825348 106.671700,145.807678 106.113815,145.819199 
	C105.749435,145.893066 105.385048,145.966949 104.817009,145.260788 
	C104.491051,142.851746 104.165092,140.442719 103.989929,137.117844 
	C103.704521,128.815292 103.716637,120.487953 103.027626,112.219032 
	C102.578964,106.834534 104.392433,105.045570 109.734383,103.994934 
	C146.826996,96.699669 180.662033,82.114212 210.537262,58.169445 
	C215.331146,61.764191 219.996292,65.547539 224.940369,68.922241 
	C251.610458,87.126686 281.169983,98.315674 312.632080,104.895355 
	C314.223053,105.228081 316.843109,106.816994 316.816315,107.759270 
	C316.528778,117.853409 315.804077,127.935089 314.928894,137.447708 
	C314.338989,136.615479 313.749084,135.783249 313.102325,134.392700 
	C312.860779,134.127350 312.619232,133.861984 312.469025,133.645966 
	C312.469025,133.645966 312.487396,133.543823 312.344269,132.861160 
	C310.882507,130.107605 309.696442,127.143768 307.831146,124.697945 
	C307.018738,123.632744 304.812408,123.630608 302.530670,122.978790 
	C301.967468,122.575356 301.404297,122.171921 301.303864,121.228020 
	C301.321289,117.889160 300.365845,116.976845 297.096741,117.070076 
	C295.395508,117.118591 293.690582,117.039108 292.065460,116.312202 
	C296.464813,111.481995 292.180725,108.596931 289.864655,105.235382 
	C287.940063,105.929619 286.274963,106.530243 283.958252,107.224419 
	C283.633545,107.502541 283.308868,107.780663 282.848480,108.210129 
	C282.848480,108.210129 282.655518,108.146309 281.983948,108.249275 
	C281.673370,108.558685 281.362793,108.868088 280.924133,109.649994 
	C280.695618,110.075981 280.467102,110.501961 279.639465,111.331558 
	C277.122833,112.883705 274.606232,114.435852 271.447998,115.983459 
	C269.959259,116.321739 268.470490,116.660019 266.479919,117.002960 
	C266.312653,117.004936 266.145355,117.006920 265.199310,116.987381 
	C263.822113,117.780609 262.444946,118.573845 261.067749,119.367081 
	C262.034790,120.239899 263.001862,121.112717 264.465759,122.330940 
	C264.646179,122.894814 264.826569,123.458694 264.753052,124.606499 
	C264.500671,125.405006 264.248322,126.203522 264.000000,127.000000 
	C264.000000,127.000000 264.003662,126.995567 263.220978,127.002853 
	C259.120636,127.592812 256.289307,129.496353 255.433624,134.420776 
	C253.143036,140.156616 247.491135,140.354935 242.365967,142.132721 
	C242.365967,142.132721 241.955414,142.189819 241.307037,141.847336 
	C235.870468,139.613129 230.433899,137.378937 224.449036,134.888153 
	C223.861481,134.864258 223.273941,134.840378 222.171631,134.301971 
	C221.456818,134.248322 220.742004,134.194672 219.380737,133.893677 
	C218.925461,133.918564 218.470184,133.943451 217.567825,133.670761 
	C217.046112,133.683121 216.524384,133.695480 215.485229,133.183197 
	C215.172379,131.795135 214.859512,130.407059 214.771332,128.102142 
	C214.771332,122.818893 214.771332,117.535645 214.771332,111.985916 
	C211.549606,111.985916 208.806107,111.985916 205.866028,111.985916 
	C205.866028,117.145233 205.866028,122.078278 205.596222,127.715919 
	C205.085068,129.957565 206.832962,133.131424 202.195496,133.873428 
	C200.911697,134.199921 199.627899,134.526398 197.773163,134.601151 
	C197.178207,134.770889 196.583252,134.940628 195.218750,135.052292 
	C190.163605,137.112106 185.108475,139.171936 179.386246,141.347061 
	C175.911530,143.891708 172.436829,146.436356 168.304489,149.129471 
	C165.527664,152.403687 162.750839,155.677902 159.434967,159.356247 
	C157.512711,162.849472 155.590469,166.342682 153.131729,170.288559 
	C151.933624,174.532043 150.735519,178.775528 149.175491,183.625366 
	C149.174164,184.089859 149.172852,184.554352 148.932098,185.483490 
	C148.970810,185.653351 149.009537,185.823227 148.759964,186.639847 
	C148.485641,188.027939 148.211319,189.416016 147.008118,190.813492 
	C140.288574,190.813492 133.569031,190.813492 126.813927,190.813492 
	C126.813927,194.272720 126.813927,197.008133 126.813927,200.079803 
	C134.078888,200.079803 141.027603,200.079803 147.980453,200.006653 
	C147.980453,200.006653 147.921097,200.049606 148.121246,200.853546 
	C148.792923,204.219711 149.464615,207.585876 150.080780,211.714828 
	C158.447479,238.951477 177.492569,253.594101 205.478027,258.097015 
	C205.478027,265.353485 205.478027,272.447601 205.478027,279.526031 
	C208.841965,279.526031 211.706223,279.526031 214.899155,279.526031 
	C214.899155,272.154633 214.899155,265.194519 214.899155,258.180695 
	C247.892426,252.454376 267.293884,233.590836 272.405487,199.855408 
	C279.295868,199.855408 286.344147,199.855408 293.415222,199.855408 
	C293.415222,196.624573 293.415222,194.017914 293.415222,190.843414 
	C286.291931,190.843414 279.387115,190.843414 273.024139,190.843414 
	C270.897614,183.664856 269.629761,176.860901 266.860107,170.736053 
	C264.017029,164.448837 259.706207,158.825348 256.334015,152.250809 
	C257.171356,148.709900 258.751740,146.181503 263.057495,146.915192 
	C263.742096,147.031845 264.643677,146.524704 265.295349,146.084503 
	C271.763702,141.715195 278.469269,137.912964 286.879059,137.313385 
	C288.880463,140.626450 290.881897,143.939499 292.974060,147.947433 
	C297.975952,157.784286 304.380554,167.075226 304.348938,178.870987 
	C304.776581,178.999832 305.204224,179.128662 305.631866,179.257507 
	C307.853424,176.325211 310.074982,173.392914 312.943054,170.222885 
	C316.367584,165.529312 320.131287,161.042694 323.147064,156.099731 
	C329.716705,145.331940 336.811951,134.671295 336.608704,121.262634 
	C336.497864,113.953995 336.318390,106.646194 336.134277,99.338905 
	C335.861053,88.496239 335.816864,88.687462 325.112732,86.964035 
	C288.691467,81.099983 255.233810,68.077293 225.821136,45.414997 
	C220.711349,41.477947 215.529480,37.634441 209.899200,33.321381 
	C208.201447,34.581173 206.525818,35.872162 204.802307,37.095684 
	C193.681305,44.990490 182.979614,53.582825 171.333771,60.609505 
	C145.862335,75.978058 117.699425,83.832558 88.413811,87.900078 
	C85.634521,88.286102 84.181572,88.985260 84.206177,92.049454 
	C84.305092,104.364731 84.264961,116.681122 84.100632,129.875366 
	C85.230675,142.611343 86.360718,155.347321 87.533325,168.851044 
	C86.167511,171.605972 84.801704,174.360916 83.101807,177.281494 
	C83.101807,177.281494 83.021729,177.645676 82.489601,177.990616 
	C80.219444,183.298447 77.949295,188.606262 75.196648,194.417511 
	C74.151901,198.285095 73.107155,202.152695 71.590485,206.562393 
	C71.422142,207.709915 71.253792,208.857452 70.929413,210.497208 
	C70.982903,210.660797 71.036400,210.824402 70.799301,211.768265 
	C70.947884,217.173920 71.096466,222.579575 71.123978,228.737137 
	C72.049721,231.499741 72.975464,234.262344 73.928635,237.762283 
	C76.076591,241.402222 78.224541,245.042160 80.372490,248.682098 
	C81.057007,248.403732 81.741524,248.125366 82.426041,247.847000 
	C81.268860,244.234207 80.111687,240.621429 79.102226,236.138550 
	C79.024254,234.084488 78.946289,232.030411 78.982414,229.501541 
	C78.982414,229.501541 78.868462,229.026718 79.026123,228.354553 
	C78.975456,227.900101 78.924789,227.445648 79.016266,226.162689 
	C80.087288,221.226456 81.158310,216.290222 82.713867,210.809845 
	C84.462532,206.202484 86.211197,201.595123 88.459274,196.526367 
	C90.338394,193.031342 92.217506,189.536316 94.565163,185.809036 
	C94.748390,185.334763 94.931618,184.860489 95.625526,184.088318 
	C95.759758,183.727631 95.893997,183.366928 96.596138,182.657623 
	C105.061646,173.103119 113.527153,163.548615 122.633904,153.796539 
	C125.471970,151.342834 128.310028,148.889145 131.815323,146.202332 
	C150.092392,132.533936 169.738647,121.434837 191.946564,115.642807 
	C197.335617,114.237289 200.690018,112.592751 199.817688,106.488495 
	C199.788284,106.282707 200.226288,106.010132 200.499268,105.710724 
	C207.190659,105.710724 213.927139,105.710724 221.173599,105.710724 
	C221.173599,112.000343 221.173599,117.883980 221.173599,124.859695 
	C234.154160,116.216995 246.255554,108.159668 259.087616,99.615852 
	C246.127518,91.101685 233.932587,83.090187 220.697266,74.395210 
	C220.697266,80.112869 220.697266,84.356300 220.697266,88.786392 
	C196.420425,90.010002 174.625671,97.846054 154.010269,109.194077 
	C140.145569,116.826096 126.990494,125.560249 115.191216,137.141281 
	C113.421890,138.938644 111.652557,140.735992 109.316086,142.806610 
	C109.114967,143.164047 108.913849,143.521484 108.886581,143.882294 
M297.183624,48.870049 
	C291.211578,49.094864 285.239532,49.319679 279.267456,49.544495 
	C279.291229,50.086063 279.314972,50.627628 279.338745,51.169193 
	C285.554932,51.169193 291.771149,51.169193 298.762726,51.317924 
	C308.128082,54.353855 317.493469,57.389786 327.259216,60.932362 
	C331.193817,64.242905 335.128448,67.553452 339.275055,71.520546 
	C341.779449,75.818695 344.283844,80.116844 346.751160,84.767899 
	C346.751160,84.767899 347.016785,85.003166 346.999756,85.510071 
	C347.081299,85.658165 347.162842,85.806267 347.255188,86.723480 
	C347.910522,89.484428 348.565826,92.245369 349.098022,95.933998 
	C349.936676,107.332985 348.544006,118.495758 344.458130,129.128998 
	C340.965729,138.217621 336.728790,147.020172 332.273132,156.312012 
	C330.265900,159.542358 328.258698,162.772690 325.713165,166.436066 
	C322.697449,170.585083 319.681763,174.734100 316.089111,179.182449 
	C314.766449,180.678589 313.279785,182.060974 312.149628,183.690613 
	C307.370850,190.581116 297.315735,194.421005 300.375214,206.314163 
	C289.990875,203.330399 284.740326,210.510269 278.404602,215.267899 
	C276.718445,216.534073 274.695587,218.006500 273.997986,219.831665 
	C267.966522,235.611832 256.915497,246.945465 242.198608,255.926605 
	C235.247406,258.532410 228.296204,261.138245 220.783859,263.954407 
	C220.783859,270.693420 220.783859,277.944305 220.783859,285.507202 
	C216.927353,285.706940 213.491043,285.884949 209.173767,285.803589 
	C205.942398,285.803589 202.711044,285.803589 199.282013,285.803589 
	C199.282013,279.511505 198.943771,274.167145 199.382751,268.887451 
	C199.775391,264.165131 198.369415,261.498871 193.452515,261.580566 
	C189.773834,261.641693 185.880676,261.373779 182.461899,262.452789 
	C160.747635,269.306122 138.797729,274.520233 115.821655,271.996765 
	C90.776978,269.246124 70.720665,259.373566 63.074638,232.481049 
	C62.988689,232.327881 62.902744,232.174728 62.896713,231.237595 
	C62.665623,230.495499 62.434532,229.753387 62.381565,228.203583 
	C61.095982,215.097565 63.100674,202.441849 67.690292,190.107391 
	C63.056927,191.013855 54.426380,211.136932 52.751152,224.619354 
	C52.617405,225.743088 52.483658,226.866837 52.027767,228.785980 
	C52.060711,234.515884 52.093658,240.245773 52.011032,246.791016 
	C53.883900,261.747620 61.027592,273.820740 73.727638,281.608002 
	C81.249550,286.220215 89.852196,290.300079 98.437515,291.659332 
	C111.301964,293.695984 124.578262,293.476562 137.679749,293.482544 
	C142.235855,293.484619 145.466080,293.896912 149.125687,297.206207 
	C158.367706,305.563568 167.865677,313.822632 178.176392,320.760925 
	C188.278000,327.558472 199.509781,332.676544 210.999771,338.488403 
	C233.699844,328.303009 253.837936,314.349335 271.486206,296.867279 
	C284.645844,283.831635 296.252991,269.549225 305.126801,252.762634 
	C305.126801,252.762634 305.116333,252.383698 305.595245,252.074615 
	C305.706543,251.721420 305.817871,251.368225 306.181427,250.873322 
	C306.181427,250.873322 306.131012,250.588425 306.667450,250.224258 
	C306.798035,249.821106 306.928619,249.417953 307.610718,248.607346 
	C312.397583,237.534973 317.158936,226.451447 321.979401,215.393723 
	C325.886230,206.431656 325.669586,195.780685 333.703522,187.942490 
	C336.814636,183.651352 339.925751,179.360229 343.604156,174.705093 
	C346.119690,170.489746 348.635254,166.274414 351.702789,161.676376 
	C359.194946,148.971344 364.776489,135.496109 367.354828,120.940666 
	C369.249176,110.246544 370.027496,99.493187 366.060547,88.236046 
	C364.462677,84.799255 362.864777,81.362465 361.105957,77.234390 
	C357.104645,72.804680 353.103333,68.374969 348.787048,63.344875 
	C344.084137,60.839703 339.381226,58.334526 334.278717,55.294331 
	C333.851898,55.201546 333.425049,55.108761 332.802979,54.785389 
	C332.802979,54.785389 332.510223,54.859970 331.969025,54.308544 
	C326.338531,53.174416 320.708038,52.040291 314.719452,50.346619 
	C313.146881,50.202011 311.574280,50.057404 309.207214,49.682487 
	C305.505219,49.501904 301.803192,49.321323 297.183624,48.870049 
M144.646881,262.941193 
	C143.968140,261.817352 143.355728,260.646759 142.600769,259.576691 
	C130.233994,242.048172 120.752968,223.116470 114.882034,202.444534 
	C112.678909,194.687149 110.637688,186.883789 108.081062,177.476486 
	C103.084717,185.494370 98.657425,192.405731 94.502701,199.477249 
	C93.887611,200.524155 94.303009,202.397491 94.675728,203.770645 
	C100.243759,224.283875 108.679199,243.553482 120.286049,261.364319 
	C121.314751,262.942871 123.928535,264.310394 125.832352,264.345306 
	C131.964417,264.457672 138.108765,263.900177 144.646881,262.941193 
M127.223015,206.013596 
	C124.039116,205.688904 124.634521,207.532578 125.262344,209.414490 
	C131.318054,227.566544 140.263397,244.182632 151.944382,259.317078 
	C152.750488,260.361481 154.440338,261.659882 155.449051,261.462128 
	C162.827347,260.015717 170.136581,258.217010 178.732193,256.238342 
	C176.131027,254.542480 174.904175,253.719315 173.654907,252.931717 
	C160.383011,244.564346 151.109543,232.945099 145.612030,218.300018 
	C144.120819,214.327515 144.013916,208.512466 141.222137,206.700058 
	C138.034607,204.630676 132.558350,206.086731 127.223015,206.013596 
M286.795227,70.139854 
	C304.833740,69.294327 322.320648,70.538811 337.251160,84.024193 
	C336.576752,78.047569 333.046539,74.735428 329.542725,71.566696 
	C318.063446,61.185272 303.917053,57.836555 289.047821,57.296032 
	C279.570129,56.951492 270.050934,57.748589 260.550354,58.033798 
	C260.414764,58.780685 260.279175,59.527573 260.143616,60.274460 
	C268.721344,63.572453 277.299072,66.870445 286.795227,70.139854 
M257.205994,119.578430 
	C255.353180,119.714760 253.389771,119.527069 251.688644,120.107773 
	C250.651840,120.461708 250.019073,121.999290 249.204819,123.005219 
	C250.054276,123.618668 251.042923,124.877457 251.728210,124.729675 
	C254.201569,124.196266 256.611877,123.281540 258.952209,122.289528 
	C259.468292,122.070793 259.599579,120.944321 259.908081,120.235847 
	C259.208191,120.067665 258.508301,119.899490 257.205994,119.578430 
z"/>
<path fill="#054170" opacity="1.000000" stroke="none" 
	d="
M210.245514,338.531769 
	C199.509781,332.676544 188.278000,327.558472 178.176392,320.760925 
	C167.865677,313.822632 158.367706,305.563568 149.125687,297.206207 
	C145.466080,293.896912 142.235855,293.484619 137.679749,293.482544 
	C124.578262,293.476562 111.301964,293.695984 98.437515,291.659332 
	C89.852196,290.300079 81.249550,286.220215 73.727638,281.608002 
	C61.027592,273.820740 53.883900,261.747620 52.326180,246.089874 
	C53.274487,242.827194 53.254757,239.805603 54.670929,237.795776 
	C58.066315,232.976990 57.870251,231.092316 52.349915,227.990570 
	C52.483658,226.866837 52.617405,225.743088 53.293213,224.311981 
	C56.624660,225.673508 59.414047,227.342407 62.203438,229.011292 
	C62.434532,229.753387 62.665623,230.495499 62.718788,231.739120 
	C62.687912,232.493668 62.834965,232.746704 62.982018,232.999725 
	C70.720665,259.373566 90.776978,269.246124 115.821655,271.996765 
	C138.797729,274.520233 160.747635,269.306122 182.461899,262.452789 
	C185.880676,261.373779 189.773834,261.641693 193.452515,261.580566 
	C198.369415,261.498871 199.775391,264.165131 199.382751,268.887451 
	C198.943771,274.167145 199.282013,279.511505 199.282013,285.803589 
	C202.711044,285.803589 205.942398,285.803589 209.599976,286.396973 
	C210.040604,293.966614 210.054993,300.942902 209.707733,307.984680 
	C200.197220,302.060944 190.693237,296.534302 182.043610,289.894653 
	C177.456360,286.373413 173.745926,286.273315 168.670731,288.860382 
	C181.319733,300.287842 195.368286,309.195770 210.035950,317.658630 
	C210.098801,324.920166 210.172150,331.725952 210.245514,338.531769 
z"/>
<path fill="#50B8E1" opacity="1.000000" stroke="none" 
	d="
M315.199219,138.020187 
	C315.804077,127.935089 316.528778,117.853409 316.816315,107.759270 
	C316.843109,106.816994 314.223053,105.228081 312.632080,104.895355 
	C281.169983,98.315674 251.610458,87.126686 224.940369,68.922241 
	C219.996292,65.547539 215.331146,61.764191 210.265167,57.528694 
	C210.122345,49.174534 210.251633,41.461128 210.380920,33.747719 
	C215.529480,37.634441 220.711349,41.477947 225.821136,45.414997 
	C255.233810,68.077293 288.691467,81.099983 325.112732,86.964035 
	C335.816864,88.687462 335.861053,88.496239 336.134277,99.338905 
	C336.318390,106.646194 336.497864,113.953995 336.608704,121.262634 
	C336.811951,134.671295 329.716705,145.331940 323.147064,156.099731 
	C320.131287,161.042694 316.367584,165.529312 312.491730,169.884613 
	C312.214844,167.903458 312.398651,166.261505 312.562164,164.617523 
	C313.443939,155.752014 314.320709,146.886017 315.199219,138.020187 
z"/>
<path fill="#054473" opacity="1.000000" stroke="none" 
	d="
M210.140060,33.534550 
	C210.251633,41.461128 210.122345,49.174534 209.974579,57.341087 
	C180.662033,82.114212 146.826996,96.699669 109.734383,103.994934 
	C104.392433,105.045570 102.578964,106.834534 103.027626,112.219032 
	C103.716637,120.487953 103.704521,128.815292 103.679718,137.814911 
	C102.773880,140.821457 101.412788,141.656967 99.411247,140.138870 
	C96.188080,137.694214 93.168221,134.981598 89.946152,132.535400 
	C88.179192,131.193939 86.173996,130.166260 84.276222,128.997101 
	C84.264961,116.681122 84.305092,104.364731 84.206177,92.049454 
	C84.181572,88.985260 85.634521,88.286102 88.413811,87.900078 
	C117.699425,83.832558 145.862335,75.978058 171.333771,60.609505 
	C182.979614,53.582825 193.681305,44.990490 204.802307,37.095684 
	C206.525818,35.872162 208.201447,34.581173 210.140060,33.534550 
z"/>
<path fill="#09A753" opacity="1.000000" stroke="none" 
	d="
M115.795921,136.931107 
	C126.990494,125.560249 140.145569,116.826096 154.010269,109.194077 
	C174.625671,97.846054 196.420425,90.010002 220.697266,88.786392 
	C220.697266,84.356300 220.697266,80.112869 220.697266,74.395210 
	C233.932587,83.090187 246.127518,91.101685 259.087616,99.615852 
	C246.255554,108.159668 234.154160,116.216995 221.173599,124.859695 
	C221.173599,117.883980 221.173599,112.000343 221.173599,105.710724 
	C213.927139,105.710724 207.190659,105.710724 200.499268,105.710724 
	C200.226288,106.010132 199.788284,106.282707 199.817688,106.488495 
	C200.690018,112.592751 197.335617,114.237289 191.946564,115.642807 
	C169.738647,121.434837 150.092392,132.533936 131.413513,145.946854 
	C126.430489,141.918991 122.457130,137.090775 115.795921,136.931107 
z"/>
<path fill="#06A653" opacity="1.000000" stroke="none" 
	d="
M305.116333,252.383698 
	C305.116333,252.383698 305.126801,252.762634 304.582855,252.879364 
	C297.564514,252.176483 291.745636,250.099060 287.822510,244.181198 
	C290.216217,239.158630 292.544006,234.465332 294.871826,229.772034 
	C294.098633,229.256195 293.325439,228.740341 292.552246,228.224503 
	C288.672363,232.294098 284.419342,236.074036 280.989136,240.492706 
	C273.477356,250.169052 266.382812,260.169312 258.736450,270.021973 
	C250.901184,267.772400 246.416718,262.315704 242.921616,255.785339 
	C256.915497,246.945465 267.966522,235.611832 273.997986,219.831665 
	C274.695587,218.006500 276.718445,216.534073 278.404602,215.267899 
	C284.740326,210.510269 289.990875,203.330399 300.375214,206.314163 
	C297.315735,194.421005 307.370850,190.581116 312.149628,183.690613 
	C313.279785,182.060974 314.766449,180.678589 316.773315,179.093765 
	C320.661041,180.182327 324.074615,180.990128 327.001678,182.653809 
	C329.339813,183.982742 331.085724,186.353668 333.094482,188.262115 
	C325.669586,195.780685 325.886230,206.431656 321.979401,215.393723 
	C317.158936,226.451447 312.397583,237.534973 307.076477,249.000000 
	C306.405182,249.791260 306.268097,250.189850 306.131012,250.588425 
	C306.131012,250.588425 306.181427,250.873322 305.834229,251.112885 
	C305.363464,251.696198 305.239899,252.039948 305.116333,252.383698 
z"/>
<path fill="#0A4370" opacity="1.000000" stroke="none" 
	d="
M256.037750,152.911377 
	C259.706207,158.825348 264.017029,164.448837 266.860107,170.736053 
	C269.629761,176.860901 270.897614,183.664856 273.024139,190.843414 
	C279.387115,190.843414 286.291931,190.843414 293.415222,190.843414 
	C293.415222,194.017914 293.415222,196.624573 293.415222,199.855408 
	C286.344147,199.855408 279.295868,199.855408 272.405487,199.855408 
	C267.293884,233.590836 247.892426,252.454376 214.899155,258.180695 
	C214.899155,265.194519 214.899155,272.154633 214.899155,279.526031 
	C211.706223,279.526031 208.841965,279.526031 205.478027,279.526031 
	C205.478027,272.447601 205.478027,265.353485 205.478027,258.097015 
	C177.492569,253.594101 158.447479,238.951477 150.428467,211.181549 
	C153.516052,210.431976 156.255951,210.215714 159.195251,210.298813 
	C166.493408,233.046600 187.955002,248.020187 205.650330,247.450272 
	C205.650330,243.676514 205.650330,239.886810 205.650330,235.974060 
	C208.870026,235.974060 211.704605,235.974060 214.973358,235.974060 
	C214.973358,240.219025 214.973358,243.995148 214.973358,247.760086 
	C238.515335,247.530533 263.590424,222.034744 261.997925,199.911072 
	C258.446747,199.911072 254.851715,199.911072 251.198486,199.911072 
	C251.198486,196.712982 251.198486,193.967896 251.198486,190.680222 
	C255.002487,190.680222 258.564117,190.680222 262.560333,190.680222 
	C261.102295,176.180679 254.766663,164.877762 245.010376,155.009247 
	C247.544861,153.407501 249.926575,152.142471 252.628067,150.845367 
	C253.977814,151.512665 255.007782,152.212021 256.037750,152.911377 
z"/>
<path fill="#07A453" opacity="1.000000" stroke="none" 
	d="
M287.756622,244.510468 
	C291.745636,250.099060 297.564514,252.176483 304.434021,252.996765 
	C296.252991,269.549225 284.645844,283.831635 271.486206,296.867279 
	C253.837936,314.349335 233.699844,328.303009 210.622635,338.510071 
	C210.172150,331.725952 210.098801,324.920166 210.362488,317.521332 
	C229.188553,307.156372 246.604080,295.718414 260.462799,279.956146 
	C270.288544,268.780823 278.708923,256.369873 287.756622,244.510468 
z"/>
<path fill="#064170" opacity="1.000000" stroke="none" 
	d="
M144.447632,263.271057 
	C138.108765,263.900177 131.964417,264.457672 125.832352,264.345306 
	C123.928535,264.310394 121.314751,262.942871 120.286049,261.364319 
	C108.679199,243.553482 100.243759,224.283875 94.675728,203.770645 
	C94.303009,202.397491 93.887611,200.524155 94.502701,199.477249 
	C98.657425,192.405731 103.084717,185.494370 108.081062,177.476486 
	C110.637688,186.883789 112.678909,194.687149 114.882034,202.444534 
	C120.752968,223.116470 130.233994,242.048172 142.600769,259.576691 
	C143.355728,260.646759 143.968140,261.817352 144.447632,263.271057 
z"/>
<path fill="#08A750" opacity="1.000000" stroke="none" 
	d="
M332.821198,155.949249 
	C336.728790,147.020172 340.965729,138.217621 344.458130,129.128998 
	C348.544006,118.495758 349.936676,107.332985 349.550964,95.470657 
	C352.772095,94.052628 355.561432,93.154221 358.302460,92.126984 
	C360.898376,91.154129 363.443634,90.046143 366.011169,88.997574 
	C370.027496,99.493187 369.249176,110.246544 367.354828,120.940666 
	C364.776489,135.496109 359.194946,148.971344 351.056152,161.816132 
	C344.546753,159.953659 338.683990,157.951462 332.821198,155.949249 
z"/>
<path fill="#06A352" opacity="1.000000" stroke="none" 
	d="
M242.560120,255.855972 
	C246.416718,262.315704 250.901184,267.772400 258.619385,270.340149 
	C254.409439,275.137482 250.190521,279.898590 245.409088,284.004700 
	C234.564789,293.317352 223.297623,302.091003 210.069397,307.919189 
	C210.054993,300.942902 210.040604,293.966614 210.040466,286.526611 
	C213.491043,285.884949 216.927353,285.706940 220.783859,285.507202 
	C220.783859,277.944305 220.783859,270.693420 220.783859,263.954407 
	C228.296204,261.138245 235.247406,258.532410 242.560120,255.855972 
z"/>
<path fill="#55BAE2" opacity="1.000000" stroke="none" 
	d="
M127.649841,206.012177 
	C132.558350,206.086731 138.034607,204.630676 141.222137,206.700058 
	C144.013916,208.512466 144.120819,214.327515 145.612030,218.300018 
	C151.109543,232.945099 160.383011,244.564346 173.654907,252.931717 
	C174.904175,253.719315 176.131027,254.542480 178.732193,256.238342 
	C170.136581,258.217010 162.827347,260.015717 155.449051,261.462128 
	C154.440338,261.659882 152.750488,260.361481 151.944382,259.317078 
	C140.263397,244.182632 131.318054,227.566544 125.262344,209.414490 
	C124.634521,207.532578 124.039116,205.688904 127.649841,206.012177 
z"/>
<path fill="#F7FAF9" opacity="1.000000" stroke="none" 
	d="
M256.185883,152.581085 
	C255.007782,152.212021 253.977814,151.512665 252.569427,150.496185 
	C249.053787,147.486710 245.916565,144.794357 242.779343,142.102005 
	C247.491135,140.354935 253.143036,140.156616 255.990982,134.322739 
	C257.776520,133.385803 259.032135,131.801315 260.227875,131.845245 
	C264.098511,131.987488 263.803772,129.412186 264.003662,126.995567 
	C264.003662,126.995567 264.000000,127.000000 264.275757,127.114433 
	C266.011871,127.228867 267.472290,127.228867 268.932678,127.228867 
	C269.036652,126.688911 269.140625,126.148949 269.244598,125.608994 
	C267.832062,125.080185 266.419525,124.551376 265.006989,124.022568 
	C264.826569,123.458694 264.646179,122.894814 264.251526,121.872787 
	C264.684235,119.946060 265.331146,118.477478 265.978058,117.008896 
	C266.145355,117.006920 266.312653,117.004936 266.777222,117.353668 
	C268.393097,119.648811 269.711609,121.593231 271.030151,123.537659 
	C271.528076,123.483421 272.025970,123.429176 272.523895,123.374931 
	C272.379120,120.912621 272.234344,118.450310 272.089600,115.988007 
	C274.606232,114.435852 277.122833,112.883705 280.223114,111.324768 
	C282.011536,113.534203 283.216309,115.750443 284.488098,118.089958 
	C285.643707,118.400192 287.086884,118.787621 288.513855,119.491669 
	C286.473724,122.621399 284.026978,125.319702 286.119324,129.445343 
	C286.674072,129.696442 287.056183,129.705765 287.617279,129.524536 
	C288.118683,129.208771 288.441071,129.083542 288.833649,129.470398 
	C288.937103,130.325455 288.970367,130.668411 288.675171,131.154572 
	C287.693878,133.156647 287.041016,135.015503 286.388153,136.874359 
	C278.469269,137.912964 271.763702,141.715195 265.295349,146.084503 
	C264.643677,146.524704 263.742096,147.031845 263.057495,146.915192 
	C258.751740,146.181503 257.171356,148.709900 256.185883,152.581085 
z"/>
<path fill="#57B9E0" opacity="1.000000" stroke="none" 
	d="
M286.335999,70.154144 
	C277.299072,66.870445 268.721344,63.572453 260.143616,60.274460 
	C260.279175,59.527573 260.414764,58.780685 260.550354,58.033798 
	C270.050934,57.748589 279.570129,56.951492 289.047821,57.296032 
	C303.917053,57.836555 318.063446,61.185272 329.542725,71.566696 
	C333.046539,74.735428 336.576752,78.047569 337.251160,84.024193 
	C322.320648,70.538811 304.833740,69.294327 286.335999,70.154144 
z"/>
<path fill="#08A954" opacity="1.000000" stroke="none" 
	d="
M315.064056,137.733948 
	C314.320709,146.886017 313.443939,155.752014 312.562164,164.617523 
	C312.398651,166.261505 312.214844,167.903458 312.168457,170.003479 
	C310.074982,173.392914 307.853424,176.325211 305.631866,179.257507 
	C305.204224,179.128662 304.776581,178.999832 304.348938,178.870987 
	C304.380554,167.075226 297.975952,157.784286 293.080322,147.271927 
	C296.967896,138.323624 302.958191,133.317230 312.487396,133.543823 
	C312.487396,133.543823 312.469025,133.645966 312.404053,133.915466 
	C312.612427,134.440323 312.885834,134.695663 313.159210,134.951019 
	C313.749084,135.783249 314.338989,136.615479 315.064056,137.733948 
z"/>
<path fill="#069E57" opacity="1.000000" stroke="none" 
	d="
M121.992661,153.994110 
	C113.527153,163.548615 105.061646,173.103119 96.071480,182.993912 
	C95.402824,183.682205 95.258827,184.034210 95.114845,184.386215 
	C94.931618,184.860489 94.748390,185.334763 93.997482,185.781555 
	C89.960449,183.051270 86.491089,180.348465 83.021729,177.645676 
	C83.021729,177.645676 83.101807,177.281494 83.659698,177.073929 
	C92.052025,173.949615 92.389557,173.320847 89.121155,167.670761 
	C90.088104,166.134476 90.874626,164.876923 91.759605,163.692947 
	C96.165733,157.798279 100.597755,151.922958 105.020668,146.040833 
	C105.385048,145.966949 105.749435,145.893066 106.527634,146.165176 
	C111.958519,149.005478 116.975594,151.499802 121.992661,153.994110 
z"/>
<path fill="#05426F" opacity="1.000000" stroke="none" 
	d="
M104.918839,145.650818 
	C100.597755,151.922958 96.165733,157.798279 91.759605,163.692947 
	C90.874626,164.876923 90.088104,166.134476 88.870247,167.675430 
	C88.153122,168.022934 87.821938,168.053116 87.490753,168.083282 
	C86.360718,155.347321 85.230675,142.611343 84.188431,129.436234 
	C86.173996,130.166260 88.179192,131.193939 89.946152,132.535400 
	C93.168221,134.981598 96.188080,137.694214 99.411247,140.138870 
	C101.412788,141.656967 102.773880,140.821457 103.604324,138.272827 
	C104.165092,140.442719 104.491051,142.851746 104.918839,145.650818 
z"/>
<path fill="#094575" opacity="1.000000" stroke="none" 
	d="
M203.001801,134.003052 
	C206.832962,133.131424 205.085068,129.957565 206.132507,127.367790 
	C209.294754,127.686111 211.920715,128.352554 214.546661,129.018997 
	C214.859512,130.407059 215.172379,131.795135 215.829041,133.676437 
	C216.786865,134.102570 217.400879,134.035446 218.014908,133.968353 
	C218.470184,133.943451 218.925461,133.918564 219.970276,134.257843 
	C221.268677,134.686829 221.977539,134.751648 222.686386,134.816483 
	C223.273941,134.840378 223.861481,134.864258 224.722961,135.396362 
	C225.088531,142.239197 219.734756,141.462769 215.649979,142.958008 
	C215.011246,144.066086 214.719376,145.012634 214.105225,146.045410 
	C211.129440,146.408981 208.475906,146.686356 205.729248,146.608795 
	C205.089661,145.109009 204.543213,143.964172 203.879913,142.641815 
	C203.564941,142.251144 203.325378,142.106781 202.641037,142.021500 
	C196.699524,141.673218 195.078400,139.882950 195.988297,135.110367 
	C196.583252,134.940628 197.178207,134.770889 198.481140,134.762207 
	C200.460007,134.616531 201.730896,134.309799 203.001801,134.003052 
z"/>
<path fill="#044071" opacity="1.000000" stroke="none" 
	d="
M149.171539,185.018845 
	C149.172852,184.554352 149.174164,184.089859 149.743988,183.316437 
	C152.934662,183.356857 155.556839,183.706192 158.217026,184.484039 
	C158.186218,186.901505 158.117432,188.890457 158.282410,191.181702 
	C160.525192,191.831345 162.534195,192.178696 165.757584,192.736023 
	C159.935974,197.565811 153.642700,198.145309 147.921097,200.049606 
	C147.921097,200.049606 147.980453,200.006653 147.699371,199.731140 
	C142.119873,199.301880 136.820007,198.999802 131.523621,199.051758 
	C128.492462,199.081482 127.950211,197.653351 127.961006,195.060257 
	C127.973282,192.115082 129.726303,192.079269 131.901184,191.963837 
	C137.251892,191.679810 142.592392,191.203232 147.936996,190.804108 
	C148.211319,189.416016 148.485641,188.027939 149.060547,186.238495 
	C149.428131,185.743210 149.572678,185.610611 149.548523,185.562119 
	C149.451187,185.366898 149.301727,185.197678 149.171539,185.018845 
z"/>
<path fill="#08A44E" opacity="1.000000" stroke="none" 
	d="
M333.398987,188.102295 
	C331.085724,186.353668 329.339813,183.982742 327.001678,182.653809 
	C324.074615,180.990128 320.661041,180.182327 317.061768,178.944092 
	C319.681763,174.734100 322.697449,170.585083 326.349854,166.221466 
	C332.336639,169.027618 337.686737,172.048355 343.036865,175.069092 
	C339.925751,179.360229 336.814636,183.651352 333.398987,188.102295 
z"/>
<path fill="#0BA450" opacity="1.000000" stroke="none" 
	d="
M312.415833,133.202484 
	C302.958191,133.317230 296.967896,138.323624 293.034973,146.924484 
	C290.881897,143.939499 288.880463,140.626450 286.633606,137.093872 
	C287.041016,135.015503 287.693878,133.156647 289.036987,131.233490 
	C294.231232,128.494705 298.735199,125.820190 303.239166,123.145668 
	C304.812408,123.630608 307.018738,123.632744 307.831146,124.697945 
	C309.696442,127.143768 310.882507,130.107605 312.415833,133.202484 
z"/>
<path fill="#09AA54" opacity="1.000000" stroke="none" 
	d="
M343.320496,174.887085 
	C337.686737,172.048355 332.336639,169.027618 326.618988,166.004959 
	C328.258698,162.772690 330.265900,159.542358 332.547180,156.130630 
	C338.683990,157.951462 344.546753,159.953659 350.780151,162.007477 
	C348.635254,166.274414 346.119690,170.489746 343.320496,174.887085 
z"/>
<path fill="#06A558" opacity="1.000000" stroke="none" 
	d="
M122.313278,153.895325 
	C116.975594,151.499802 111.958519,149.005478 106.806572,146.159424 
	C106.671700,145.807678 106.696480,145.825348 106.987495,145.760162 
	C107.466515,145.367355 107.654518,145.039764 107.842522,144.712158 
	C107.842522,144.712158 107.871246,144.871994 108.075165,144.783722 
	C108.467499,144.368164 108.655914,144.040894 108.844330,143.713608 
	C108.844330,143.713608 108.886581,143.882294 109.099792,143.763916 
	C109.503075,143.274811 109.693153,142.904083 109.883240,142.533356 
	C111.652557,140.735992 113.421890,138.938644 115.493568,137.036194 
	C122.457130,137.090775 126.430489,141.918991 131.079910,146.063416 
	C128.310028,148.889145 125.471970,151.342834 122.313278,153.895325 
z"/>
<path fill="#0BA64E" opacity="1.000000" stroke="none" 
	d="
M346.788208,84.415001 
	C344.283844,80.116844 341.779449,75.818695 339.374512,70.941650 
	C342.683289,68.223595 345.892670,66.084427 349.102020,63.945263 
	C353.103333,68.374969 357.104645,72.804680 360.770599,77.600868 
	C355.886230,80.116562 351.337219,82.265785 346.788208,84.415001 
z"/>
<path fill="#0D436D" opacity="1.000000" stroke="none" 
	d="
M62.292503,228.607452 
	C59.414047,227.342407 56.624660,225.673508 53.448944,224.004700 
	C54.426380,211.136932 63.056927,191.013855 67.690292,190.107391 
	C63.100674,202.441849 61.095982,215.097565 62.292503,228.607452 
z"/>
<path fill="#0EAE57" opacity="1.000000" stroke="none" 
	d="
M346.769684,84.591446 
	C351.337219,82.265785 355.886230,80.116562 360.851074,77.946503 
	C362.864777,81.362465 364.462677,84.799255 366.035858,88.616814 
	C363.443634,90.046143 360.898376,91.154129 358.302460,92.126984 
	C355.561432,93.154221 352.772095,94.052628 349.612518,95.006821 
	C348.565826,92.245369 347.910522,89.484428 347.371399,86.221756 
	C347.330688,85.481079 347.173737,85.242126 347.016785,85.003166 
	C347.016785,85.003166 346.751160,84.767899 346.769684,84.591446 
z"/>
<path fill="#089756" opacity="1.000000" stroke="none" 
	d="
M82.755661,177.818146 
	C86.491089,180.348465 89.960449,183.051270 93.763214,185.897675 
	C92.217506,189.536316 90.338394,193.031342 87.842888,196.716995 
	C83.377380,195.909775 79.528259,194.911942 75.679138,193.914093 
	C77.949295,188.606262 80.219444,183.298447 82.755661,177.818146 
z"/>
<path fill="#0C416C" opacity="1.000000" stroke="none" 
	d="
M148.021179,200.451569 
	C153.642700,198.145309 159.935974,197.565811 165.757584,192.736023 
	C162.534195,192.178696 160.525192,191.831345 158.740814,191.162598 
	C162.397949,190.841232 165.830475,190.841232 169.365967,190.841232 
	C169.365967,194.177155 169.365967,196.912216 169.365967,200.143997 
	C165.360550,200.143997 161.635269,200.143997 157.611542,200.143997 
	C158.123138,203.786301 158.559479,206.892868 158.995819,209.999451 
	C156.255951,210.215714 153.516052,210.431976 150.456238,210.800140 
	C149.464615,207.585876 148.792923,204.219711 148.021179,200.451569 
z"/>
<path fill="#099D5E" opacity="1.000000" stroke="none" 
	d="
M75.437897,194.165802 
	C79.528259,194.911942 83.377380,195.909775 87.593185,196.947693 
	C86.211197,201.595123 84.462532,206.202484 82.219032,210.756958 
	C78.425476,209.303970 73.802361,210.635834 72.062408,206.020279 
	C73.107155,202.152695 74.151901,198.285095 75.437897,194.165802 
z"/>
<path fill="#0EAE57" opacity="1.000000" stroke="none" 
	d="
M348.944519,63.645069 
	C345.892670,66.084427 342.683289,68.223595 339.268494,70.613373 
	C335.128448,67.553452 331.193817,64.242905 327.120148,60.297249 
	C328.824127,58.061417 330.667175,56.460693 332.510223,54.859970 
	C332.510223,54.859970 332.802979,54.785389 333.115509,55.146393 
	C333.844788,55.614716 334.261566,55.722031 334.678314,55.829346 
	C339.381226,58.334526 344.084137,60.839703 348.944519,63.645069 
z"/>
<path fill="#089459" opacity="1.000000" stroke="none" 
	d="
M71.826447,206.291336 
	C73.802361,210.635834 78.425476,209.303970 81.976761,211.029022 
	C81.158310,216.290222 80.087288,221.226456 78.549454,226.583130 
	C75.803452,227.330795 73.524246,227.658020 71.245049,227.985229 
	C71.096466,222.579575 70.947884,217.173920 71.101204,211.291367 
	C71.297218,210.544632 71.191330,210.274811 71.085442,210.004974 
	C71.253792,208.857452 71.422142,207.709915 71.826447,206.291336 
z"/>
<path fill="#0A426F" opacity="1.000000" stroke="none" 
	d="
M215.996857,142.796494 
	C219.734756,141.462769 225.088531,142.239197 224.997116,135.524658 
	C230.433899,137.378937 235.870468,139.613129 241.409164,142.259140 
	C239.212967,144.514633 236.914642,146.358307 234.259064,148.162079 
	C227.933487,146.346954 221.965179,144.571716 215.996857,142.796494 
z"/>
<path fill="#13A454" opacity="1.000000" stroke="none" 
	d="
M332.239624,54.584259 
	C330.667175,56.460693 328.824127,58.061417 326.919952,60.043930 
	C317.493469,57.389786 308.128082,54.353855 298.343384,50.904472 
	C297.983093,50.040928 298.042145,49.590836 298.101196,49.140743 
	C301.803192,49.321323 305.505219,49.501904 309.764465,50.164970 
	C311.906982,50.733692 313.492279,50.819931 315.077545,50.906166 
	C320.708038,52.040291 326.338531,53.174416 332.239624,54.584259 
z"/>
<path fill="#09406C" opacity="1.000000" stroke="none" 
	d="
M159.974030,158.952118 
	C162.750839,155.677902 165.527664,152.403687 169.011337,149.073807 
	C172.395798,150.459625 175.073425,151.901108 177.540192,153.622406 
	C173.995193,156.986908 170.661057,160.071548 166.960541,163.093307 
	C164.387466,161.670990 162.180740,160.311554 159.974030,158.952118 
z"/>
<path fill="#0A426F" opacity="1.000000" stroke="none" 
	d="
M195.603516,135.081329 
	C195.078400,139.882950 196.699524,141.673218 202.626526,142.235413 
	C203.015335,142.459000 202.990829,142.887909 202.610031,142.998459 
	C197.330536,144.504303 192.431839,145.899597 187.198410,147.133881 
	C184.593567,145.059174 182.323456,143.145462 180.053345,141.231766 
	C185.108475,139.171936 190.163605,137.112106 195.603516,135.081329 
z"/>
<path fill="#12A153" opacity="1.000000" stroke="none" 
	d="
M288.530029,119.175049 
	C287.086884,118.787621 285.643707,118.400192 284.488098,118.089958 
	C283.216309,115.750443 282.011536,113.534203 280.522675,111.122955 
	C280.467102,110.501961 280.695618,110.075981 281.314941,109.344147 
	C282.022339,108.740974 282.338928,108.443642 282.655518,108.146309 
	C282.655518,108.146309 282.848480,108.210129 283.245758,108.098648 
	C283.965302,107.701744 284.287598,107.416313 284.609863,107.130875 
	C286.274963,106.530243 287.940063,105.929619 289.864655,105.235382 
	C292.180725,108.596931 296.464813,111.481995 291.855347,116.979378 
	C290.606842,118.156052 289.568451,118.665550 288.530029,119.175049 
z"/>
<path fill="#023A68" opacity="1.000000" stroke="none" 
	d="
M214.658997,128.560577 
	C211.920715,128.352554 209.294754,127.686111 206.267426,127.015488 
	C205.866028,122.078278 205.866028,117.145233 205.866028,111.985916 
	C208.806107,111.985916 211.549606,111.985916 214.771332,111.985916 
	C214.771332,117.535645 214.771332,122.818893 214.658997,128.560577 
z"/>
<path fill="#16AC5D" opacity="1.000000" stroke="none" 
	d="
M288.513855,119.491669 
	C289.568451,118.665550 290.606842,118.156052 291.816284,117.331985 
	C293.690582,117.039108 295.395508,117.118591 297.096741,117.070076 
	C300.365845,116.976845 301.321289,117.889160 300.722290,121.554291 
	C296.348328,124.239822 292.555878,126.599075 288.763458,128.958328 
	C288.441071,129.083542 288.118683,129.208771 287.394775,129.374146 
	C286.644379,129.344055 286.295532,129.273819 285.946686,129.203568 
	C284.026978,125.319702 286.473724,122.621399 288.513855,119.491669 
z"/>
<path fill="#09406C" opacity="1.000000" stroke="none" 
	d="
M158.179047,184.055511 
	C155.556839,183.706192 152.934662,183.356857 149.924942,183.013275 
	C150.735519,178.775528 151.933624,174.532043 153.773956,170.224731 
	C157.108521,170.822662 159.800858,171.484421 162.273254,172.470261 
	C160.761887,176.548065 159.470459,180.301788 158.179047,184.055511 
z"/>
<path fill="#0F4877" opacity="1.000000" stroke="none" 
	d="
M234.616318,148.201981 
	C236.914642,146.358307 239.212967,144.514633 241.733353,142.430389 
	C241.955414,142.189819 242.365967,142.132721 242.572662,142.117371 
	C245.916565,144.794357 249.053787,147.486710 252.249649,150.528259 
	C249.926575,152.142471 247.544861,153.407501 244.703033,154.851593 
	C241.034042,152.754410 237.825180,150.478195 234.616318,148.201981 
z"/>
<path fill="#0F4877" opacity="1.000000" stroke="none" 
	d="
M179.719788,141.289413 
	C182.323456,143.145462 184.593567,145.059174 186.958038,147.393066 
	C183.951950,149.656372 180.851501,151.499481 177.751053,153.342575 
	C175.073425,151.901108 172.395798,150.459625 169.340149,148.999573 
	C172.436829,146.436356 175.911530,143.891708 179.719788,141.289413 
z"/>
<path fill="#0F4877" opacity="1.000000" stroke="none" 
	d="
M162.493179,172.146179 
	C159.800858,171.484421 157.108521,170.822662 154.042206,169.998398 
	C155.590469,166.342682 157.512711,162.849472 159.704498,159.154175 
	C162.180740,160.311554 164.387466,161.670990 166.930206,163.453430 
	C165.675232,166.633026 164.084198,169.389603 162.493179,172.146179 
z"/>
<path fill="#139E64" opacity="1.000000" stroke="none" 
	d="
M71.184509,228.361176 
	C73.524246,227.658020 75.803452,227.330795 78.478378,226.997391 
	C78.924789,227.445648 78.975456,227.900101 78.802025,228.779312 
	C78.674721,229.461502 78.771515,229.718918 78.868317,229.976349 
	C78.946289,232.030411 79.024254,234.084488 78.695564,236.600494 
	C76.826340,237.049942 75.363770,237.037445 73.901207,237.024948 
	C72.975464,234.262344 72.049721,231.499741 71.184509,228.361176 
z"/>
<path fill="#0D436D" opacity="1.000000" stroke="none" 
	d="
M52.188843,228.388275 
	C57.870251,231.092316 58.066315,232.976990 54.670929,237.795776 
	C53.254757,239.805603 53.274487,242.827194 52.383965,245.682220 
	C52.093658,240.245773 52.060711,234.515884 52.188843,228.388275 
z"/>
<path fill="#0C416C" opacity="1.000000" stroke="none" 
	d="
M147.472565,190.808807 
	C142.592392,191.203232 137.251892,191.679810 131.901184,191.963837 
	C129.726303,192.079269 127.973282,192.115082 127.961006,195.060257 
	C127.950211,197.653351 128.492462,199.081482 131.523621,199.051758 
	C136.820007,198.999802 142.119873,199.301880 147.697296,199.767700 
	C141.027603,200.079803 134.078888,200.079803 126.813927,200.079803 
	C126.813927,197.008133 126.813927,194.272720 126.813927,190.813492 
	C133.569031,190.813492 140.288574,190.813492 147.472565,190.808807 
z"/>
<path fill="#089459" opacity="1.000000" stroke="none" 
	d="
M73.914917,237.393616 
	C75.363770,237.037445 76.826340,237.049942 78.621704,237.035538 
	C80.111687,240.621429 81.268860,244.234207 82.426041,247.847000 
	C81.741524,248.125366 81.057007,248.403732 80.372490,248.682098 
	C78.224541,245.042160 76.076591,241.402222 73.914917,237.393616 
z"/>
<path fill="#CAEDDB" opacity="1.000000" stroke="none" 
	d="
M288.833649,129.470398 
	C292.555878,126.599075 296.348328,124.239822 300.490906,121.824524 
	C301.404297,122.171921 301.967468,122.575356 302.884918,123.062233 
	C298.735199,125.820190 294.231232,128.494705 289.365417,131.090302 
	C288.970367,130.668411 288.937103,130.325455 288.833649,129.470398 
z"/>
<path fill="#7FC9A1" opacity="1.000000" stroke="none" 
	d="
M297.642395,49.005394 
	C298.042145,49.590836 297.983093,50.040928 297.955688,50.830109 
	C291.771149,51.169193 285.554932,51.169193 279.338745,51.169193 
	C279.314972,50.627628 279.291229,50.086063 279.267456,49.544495 
	C285.239532,49.319679 291.211578,49.094864 297.642395,49.005394 
z"/>
<path fill="#DAF1E4" opacity="1.000000" stroke="none" 
	d="
M257.507202,119.654869 
	C258.508301,119.899490 259.208191,120.067665 259.908081,120.235847 
	C259.599579,120.944321 259.468292,122.070793 258.952209,122.289528 
	C256.611877,123.281540 254.201569,124.196266 251.728210,124.729675 
	C251.042923,124.877457 250.054276,123.618668 249.204819,123.005219 
	C250.019073,121.999290 250.651840,120.461708 251.688644,120.107773 
	C253.389771,119.527069 255.353180,119.714760 257.507202,119.654869 
z"/>
<path fill="#089756" opacity="1.000000" stroke="none" 
	d="
M87.512039,168.467163 
	C87.821938,168.053116 88.153122,168.022934 88.735214,167.988083 
	C92.389557,173.320847 92.052025,173.949615 83.826736,176.991104 
	C84.801704,174.360916 86.167511,171.605972 87.512039,168.467163 
z"/>
<path fill="#DAF1E4" opacity="1.000000" stroke="none" 
	d="
M263.612305,126.999207 
	C263.803772,129.412186 264.098511,131.987488 260.227875,131.845245 
	C259.032135,131.801315 257.776520,133.385803 256.261047,134.114395 
	C256.289307,129.496353 259.120636,127.592812 263.612305,126.999207 
z"/>
<path fill="#DAF1E4" opacity="1.000000" stroke="none" 
	d="
M271.768799,115.985733 
	C272.234344,118.450310 272.379120,120.912621 272.523895,123.374931 
	C272.025970,123.429176 271.528076,123.483421 271.030151,123.537659 
	C269.711609,121.593231 268.393097,119.648811 267.028137,117.351349 
	C268.470490,116.660019 269.959259,116.321739 271.768799,115.985733 
z"/>
<path fill="#DAF1E4" opacity="1.000000" stroke="none" 
	d="
M265.588684,116.998138 
	C265.331146,118.477478 264.684235,119.946060 264.003113,121.700089 
	C263.001862,121.112717 262.034790,120.239899 261.067749,119.367081 
	C262.444946,118.573845 263.822113,117.780609 265.588684,116.998138 
z"/>
<path fill="#DAF1E4" opacity="1.000000" stroke="none" 
	d="
M264.880005,124.314529 
	C266.419525,124.551376 267.832062,125.080185 269.244598,125.608994 
	C269.140625,126.148949 269.036652,126.688911 268.932678,127.228867 
	C267.472290,127.228867 266.011871,127.228867 264.273712,127.115448 
	C264.248322,126.203522 264.500671,125.405006 264.880005,124.314529 
z"/>
<path fill="#7FC9A1" opacity="1.000000" stroke="none" 
	d="
M314.898499,50.626396 
	C313.492279,50.819931 311.906982,50.733692 310.161713,50.280125 
	C311.574280,50.057404 313.146881,50.202011 314.898499,50.626396 
z"/>
<path fill="#0A426F" opacity="1.000000" stroke="none" 
	d="
M202.598648,133.938232 
	C201.730896,134.309799 200.460007,134.616531 198.766602,134.888062 
	C199.627899,134.526398 200.911697,134.199921 202.598648,133.938232 
z"/>
<path fill="#0A426F" opacity="1.000000" stroke="none" 
	d="
M217.791367,133.819550 
	C217.400879,134.035446 216.786865,134.102570 216.087753,133.938751 
	C216.524384,133.695480 217.046112,133.683121 217.791367,133.819550 
z"/>
<path fill="#0A426F" opacity="1.000000" stroke="none" 
	d="
M222.429016,134.559235 
	C221.977539,134.751648 221.268677,134.686829 220.293518,134.381500 
	C220.742004,134.194672 221.456818,134.248322 222.429016,134.559235 
z"/>
<path fill="#0D436D" opacity="1.000000" stroke="none" 
	d="
M63.028328,232.740387 
	C62.834965,232.746704 62.687912,232.493668 62.678833,232.131119 
	C62.902744,232.174728 62.988689,232.327881 63.028328,232.740387 
z"/>
<path fill="#07A453" opacity="1.000000" stroke="none" 
	d="
M306.399231,250.406342 
	C306.268097,250.189850 306.405182,249.791260 306.800751,249.203735 
	C306.928619,249.417953 306.798035,249.821106 306.399231,250.406342 
z"/>
<path fill="#089459" opacity="1.000000" stroke="none" 
	d="
M78.925362,229.738953 
	C78.771515,229.718918 78.674721,229.461502 78.723190,229.115387 
	C78.868462,229.026718 78.982414,229.501541 78.925362,229.738953 
z"/>
<path fill="#07A453" opacity="1.000000" stroke="none" 
	d="
M305.355774,252.229156 
	C305.239899,252.039948 305.363464,251.696198 305.708130,251.183746 
	C305.817871,251.368225 305.706543,251.721420 305.355774,252.229156 
z"/>
<path fill="#139E64" opacity="1.000000" stroke="none" 
	d="
M71.007431,210.251099 
	C71.191330,210.274811 71.297218,210.544632 71.246506,210.901245 
	C71.036400,210.824402 70.982903,210.660797 71.007431,210.251099 
z"/>
<path fill="#09406C" opacity="1.000000" stroke="none" 
	d="
M149.051819,185.251160 
	C149.301727,185.197678 149.451187,185.366898 149.548523,185.562119 
	C149.572678,185.610611 149.428131,185.743210 149.204697,185.915131 
	C149.009537,185.823227 148.970810,185.653351 149.051819,185.251160 
z"/>
<path fill="#089756" opacity="1.000000" stroke="none" 
	d="
M95.370178,184.237274 
	C95.258827,184.034210 95.402824,183.682205 95.787521,183.168213 
	C95.893997,183.366928 95.759758,183.727631 95.370178,184.237274 
z"/>
<path fill="#069E57" opacity="1.000000" stroke="none" 
	d="
M107.566742,144.799255 
	C107.654518,145.039764 107.466515,145.367355 106.993950,145.771530 
	C106.903252,145.527512 107.097115,145.206924 107.566742,144.799255 
z"/>
<path fill="#069E57" opacity="1.000000" stroke="none" 
	d="
M108.568298,143.800369 
	C108.655914,144.040894 108.467499,144.368164 107.994759,144.772385 
	C107.904381,144.528595 108.098328,144.207855 108.568298,143.800369 
z"/>
<path fill="#069E57" opacity="1.000000" stroke="none" 
	d="
M109.599663,142.669983 
	C109.693153,142.904083 109.503075,143.274811 109.012863,143.762207 
	C108.913849,143.521484 109.114967,143.164047 109.599663,142.669983 
z"/>
<path fill="#0BA450" opacity="1.000000" stroke="none" 
	d="
M313.130768,134.671860 
	C312.885834,134.695663 312.612427,134.440323 312.358368,133.890793 
	C312.619232,133.861984 312.860779,134.127350 313.130768,134.671860 
z"/>
<path fill="#F7FAF9" opacity="1.000000" stroke="none" 
	d="
M282.319733,108.197792 
	C282.338928,108.443642 282.022339,108.740974 281.378967,109.107895 
	C281.362793,108.868088 281.673370,108.558685 282.319733,108.197792 
z"/>
<path fill="#F7FAF9" opacity="1.000000" stroke="none" 
	d="
M284.284058,107.177643 
	C284.287598,107.416313 283.965302,107.701744 283.313599,108.022980 
	C283.308868,107.780663 283.633545,107.502541 284.284058,107.177643 
z"/>
<path fill="#0BA64E" opacity="1.000000" stroke="none" 
	d="
M347.008270,85.256622 
	C347.173737,85.242126 347.330688,85.481079 347.366028,85.837204 
	C347.162842,85.806267 347.081299,85.658165 347.008270,85.256622 
z"/>
<path fill="#13A454" opacity="1.000000" stroke="none" 
	d="
M334.478516,55.561836 
	C334.261566,55.722031 333.844788,55.614716 333.213135,55.261688 
	C333.425049,55.108761 333.851898,55.201546 334.478516,55.561836 
z"/>
<path fill="#EBF5F2" opacity="1.000000" stroke="none" 
	d="
M209.707733,307.984680 
	C223.297623,302.091003 234.564789,293.317352 245.409088,284.004700 
	C250.190521,279.898590 254.409439,275.137482 259.000824,270.355499 
	C266.382812,260.169312 273.477356,250.169052 280.989136,240.492706 
	C284.419342,236.074036 288.672363,232.294098 292.552246,228.224503 
	C293.325439,228.740341 294.098633,229.256195 294.871826,229.772034 
	C292.544006,234.465332 290.216217,239.158630 287.822510,244.181198 
	C278.708923,256.369873 270.288544,268.780823 260.462799,279.956146 
	C246.604080,295.718414 229.188553,307.156372 210.373001,317.065613 
	C195.368286,309.195770 181.319733,300.287842 168.670731,288.860382 
	C173.745926,286.273315 177.456360,286.373413 182.043610,289.894653 
	C190.693237,296.534302 200.197220,302.060944 209.707733,307.984680 
z"/>
<path fill="#F3F6F6" opacity="1.000000" stroke="none" 
	d="
M162.273254,172.470245 
	C164.084198,169.389603 165.675232,166.633026 167.296570,163.516327 
	C170.661057,160.071548 173.995193,156.986908 177.540192,153.622406 
	C180.851501,151.499481 183.951950,149.656372 187.292770,147.554077 
	C192.431839,145.899597 197.330536,144.504303 202.865952,143.046509 
	C203.667374,142.929108 203.832077,142.874222 203.996765,142.819351 
	C204.543213,143.964172 205.089661,145.109009 205.586792,146.971710 
	C205.537506,150.089188 205.537506,152.488800 205.537506,154.931305 
	C208.843079,154.931305 211.555084,154.931305 214.856705,154.931305 
	C214.703598,151.730896 214.565552,148.845047 214.427505,145.959198 
	C214.719376,145.012634 215.011246,144.066086 215.649979,142.958008 
	C221.965179,144.571716 227.933487,146.346954 234.259064,148.162079 
	C237.825180,150.478195 241.034042,152.754410 244.550262,155.188278 
	C254.766663,164.877762 261.102295,176.180679 262.560333,190.680222 
	C258.564117,190.680222 255.002487,190.680222 251.198486,190.680222 
	C251.198486,193.967896 251.198486,196.712982 251.198486,199.911072 
	C254.851715,199.911072 258.446747,199.911072 261.997925,199.911072 
	C263.590424,222.034744 238.515335,247.530533 214.973358,247.760086 
	C214.973358,243.995148 214.973358,240.219025 214.973358,235.974060 
	C211.704605,235.974060 208.870026,235.974060 205.650330,235.974060 
	C205.650330,239.886810 205.650330,243.676514 205.650330,247.450272 
	C187.955002,248.020187 166.493408,233.046600 159.195251,210.298798 
	C158.559479,206.892868 158.123138,203.786301 157.611542,200.143997 
	C161.635269,200.143997 165.360550,200.143997 169.365967,200.143997 
	C169.365967,196.912216 169.365967,194.177155 169.365967,190.841232 
	C165.830475,190.841232 162.397949,190.841232 158.507034,190.860321 
	C158.117432,188.890457 158.186218,186.901505 158.217041,184.484039 
	C159.470459,180.301788 160.761887,176.548065 162.273254,172.470245 
M234.389603,221.294922 
	C235.579697,221.637527 236.754440,222.056351 237.964462,222.300095 
	C239.051819,222.519135 240.177933,222.545959 242.028854,222.732239 
	C238.057861,218.619598 234.494415,216.729324 229.334702,218.780457 
	C227.655380,216.760666 225.786255,214.867661 224.335129,212.695419 
	C221.025970,207.741821 220.390137,207.591690 216.224945,211.927872 
	C218.591812,214.603714 220.970520,217.301834 223.359451,219.990875 
	C225.230423,222.096924 227.536972,223.742172 228.088394,226.940933 
	C228.613281,229.985672 233.306290,232.441177 235.509506,231.054123 
	C238.611084,229.101486 237.180054,226.493988 235.951172,224.128265 
	C235.518951,223.296219 234.726181,222.651474 234.389603,221.294922 
M195.048370,189.635010 
	C194.486710,188.588211 193.925049,187.541428 193.334351,186.440521 
	C191.099609,187.199982 188.977661,187.921112 186.160980,188.878342 
	C185.618729,188.493820 184.209534,187.494553 181.829346,185.806732 
	C182.344894,187.739761 182.558746,188.541550 182.249847,189.785843 
	C182.085663,189.944458 181.921478,190.103088 181.070084,190.099930 
	C179.562790,189.335632 178.055511,188.571335 176.548218,187.807022 
	C176.364532,188.159775 176.180832,188.512527 175.997147,188.865265 
	C178.437027,190.854706 180.876892,192.844131 183.670868,195.122299 
	C182.125427,195.719788 181.033401,196.141968 180.127350,196.492264 
	C181.970718,200.178558 183.380280,203.847549 185.544296,206.998383 
	C186.794373,208.818527 189.268051,210.873688 191.179276,210.862198 
	C193.093430,210.850708 195.190659,208.593124 196.813477,206.934402 
	C197.597458,206.133072 197.362762,204.400467 197.853943,203.197586 
	C197.965393,202.924637 199.174881,203.100067 200.041428,203.886246 
	C200.668625,207.714767 201.295837,211.543289 202.057327,216.191452 
	C204.088257,210.717117 204.655151,206.119095 200.952011,201.081604 
	C197.824310,198.693985 197.750961,195.916061 199.746445,192.744003 
	C199.958572,192.406784 199.342178,191.548340 199.005203,190.193436 
	C201.594254,185.304123 203.588196,180.384933 199.746094,175.106812 
	C200.482101,180.616348 199.996063,185.718689 195.048370,189.635010 
M220.689835,165.544281 
	C220.139847,165.904037 219.108398,166.265579 219.109741,166.623276 
	C219.151520,177.774490 222.821884,187.153076 232.843033,193.056442 
	C234.502258,194.033905 236.802231,193.923599 238.806107,194.315979 
	C239.164505,192.270798 239.913818,190.200455 239.784119,188.186707 
	C239.615234,185.563950 238.748886,182.986099 238.182678,180.388931 
	C238.898941,179.887115 239.615204,179.385300 240.331451,178.883499 
	C240.723282,180.381134 241.115112,181.878784 241.506943,183.376434 
	C242.051682,182.837784 242.596436,182.299133 243.141174,181.760468 
	C241.790878,180.585861 240.505173,178.504807 239.078384,178.403107 
	C234.415329,178.070770 234.757523,175.379898 235.333572,172.909210 
	C231.065811,170.207733 227.010208,167.640564 223.010422,164.182068 
	C223.416702,160.236832 223.822983,156.291595 224.336349,151.306473 
	C221.018799,156.074432 220.960709,160.577301 220.689835,165.544281 
M225.542877,150.384186 
	C225.542877,150.384186 225.412201,150.646713 225.412201,150.646713 
	C225.412201,150.646713 225.676056,150.596893 225.542877,150.384186 
z"/>
<path fill="#CAEDDB" opacity="1.000000" stroke="none" 
	d="
M286.119324,129.445343 
	C286.295532,129.273819 286.644379,129.344055 287.215759,129.564697 
	C287.056183,129.705765 286.674072,129.696442 286.119324,129.445343 
z"/>
<path fill="#1E4E75" opacity="1.000000" stroke="none" 
	d="
M214.105225,146.045410 
	C214.565552,148.845047 214.703598,151.730896 214.856705,154.931305 
	C211.555084,154.931305 208.843079,154.931305 205.537506,154.931305 
	C205.537506,152.488800 205.537506,150.089188 205.679947,147.326660 
	C208.475906,146.686356 211.129440,146.408981 214.105225,146.045410 
z"/>
<path fill="#1E4E75" opacity="1.000000" stroke="none" 
	d="
M203.879913,142.641815 
	C203.832077,142.874222 203.667374,142.929108 203.246750,142.935959 
	C202.990829,142.887909 203.015335,142.459000 203.029846,142.245087 
	C203.325378,142.106781 203.564941,142.251144 203.879913,142.641815 
z"/>
<path fill="#0F4571" opacity="1.000000" stroke="none" 
	d="
M222.954605,165.073395 
	C227.010208,167.640564 231.065811,170.207733 235.333572,172.909210 
	C234.757523,175.379898 234.415329,178.070770 239.078384,178.403107 
	C240.505173,178.504807 241.790878,180.585861 243.141174,181.760468 
	C242.596436,182.299133 242.051682,182.837784 241.506943,183.376434 
	C241.115112,181.878784 240.723282,180.381134 240.331451,178.883499 
	C239.615204,179.385300 238.898941,179.887115 238.182678,180.388931 
	C238.748886,182.986099 239.615234,185.563950 239.784119,188.186707 
	C239.913818,190.200455 239.164505,192.270798 238.806107,194.315979 
	C236.802231,193.923599 234.502258,194.033905 232.843033,193.056442 
	C222.821884,187.153076 219.151520,177.774490 219.109741,166.623276 
	C219.108398,166.265579 220.139847,165.904037 221.197693,165.354004 
	C222.121902,165.133606 222.538254,165.103500 222.954605,165.073395 
z"/>
<path fill="#0E446F" opacity="1.000000" stroke="none" 
	d="
M199.878937,203.069107 
	C199.174881,203.100067 197.965393,202.924637 197.853943,203.197586 
	C197.362762,204.400467 197.597458,206.133072 196.813477,206.934402 
	C195.190659,208.593124 193.093430,210.850708 191.179276,210.862198 
	C189.268051,210.873688 186.794373,208.818527 185.544296,206.998383 
	C183.380280,203.847549 181.970718,200.178558 180.127350,196.492264 
	C181.033401,196.141968 182.125427,195.719788 183.670868,195.122299 
	C180.876892,192.844131 178.437027,190.854706 175.997147,188.865265 
	C176.180832,188.512527 176.364532,188.159775 176.548218,187.807022 
	C178.055511,188.571335 179.562790,189.335632 181.591660,190.413727 
	C182.648514,190.606979 183.183792,190.486404 183.719070,190.365845 
	C183.403580,190.025009 183.088089,189.684174 182.772583,189.343338 
	C182.558746,188.541550 182.344894,187.739761 181.829346,185.806732 
	C184.209534,187.494553 185.618729,188.493820 186.160980,188.878342 
	C188.977661,187.921112 191.099609,187.199982 193.334351,186.440521 
	C193.925049,187.541428 194.486710,188.588211 195.617783,189.840836 
	C197.161514,190.341675 198.135818,190.636688 199.110138,190.931702 
	C199.342178,191.548340 199.958572,192.406784 199.746445,192.744003 
	C197.750961,195.916061 197.824310,198.693985 200.922073,201.679596 
	C200.554398,202.541428 200.216660,202.805267 199.878937,203.069107 
z"/>
<path fill="#12446D" opacity="1.000000" stroke="none" 
	d="
M234.098022,221.921204 
	C234.726181,222.651474 235.518951,223.296219 235.951172,224.128265 
	C237.180054,226.493988 238.611084,229.101486 235.509506,231.054123 
	C233.306290,232.441177 228.613281,229.985672 228.088394,226.940933 
	C227.536972,223.742172 225.230423,222.096924 223.359451,219.990875 
	C220.970520,217.301834 218.591812,214.603714 216.224945,211.927872 
	C220.390137,207.591690 221.025970,207.741821 224.335129,212.695419 
	C225.786255,214.867661 227.655380,216.760666 229.611603,219.369354 
	C231.291672,220.612564 232.694839,221.266891 234.098022,221.921204 
z"/>
<path fill="#3E617F" opacity="1.000000" stroke="none" 
	d="
M199.057678,190.562561 
	C198.135818,190.636688 197.161514,190.341675 195.922333,189.891296 
	C199.996063,185.718689 200.482101,180.616348 199.746094,175.106812 
	C203.588196,180.384933 201.594254,185.304123 199.057678,190.562561 
z"/>
<path fill="#7790A3" opacity="1.000000" stroke="none" 
	d="
M234.243805,221.608063 
	C232.694839,221.266891 231.291672,220.612564 229.874878,219.590240 
	C234.494415,216.729324 238.057861,218.619598 242.028854,222.732239 
	C240.177933,222.545959 239.051819,222.519135 237.964462,222.300095 
	C236.754440,222.056351 235.579697,221.637527 234.243805,221.608063 
z"/>
<path fill="#3E617F" opacity="1.000000" stroke="none" 
	d="
M199.960175,203.477676 
	C200.216660,202.805267 200.554398,202.541428 201.048126,201.990540 
	C204.655151,206.119095 204.088257,210.717117 202.057327,216.191452 
	C201.295837,211.543289 200.668625,207.714767 199.960175,203.477676 
z"/>
<path fill="#B4C0C8" opacity="1.000000" stroke="none" 
	d="
M222.982513,164.627731 
	C222.538254,165.103500 222.121902,165.133606 221.393066,165.143829 
	C220.960709,160.577301 221.018799,156.074432 224.336349,151.306473 
	C223.822983,156.291595 223.416702,160.236832 222.982513,164.627731 
z"/>
<path fill="#B4C0C8" opacity="1.000000" stroke="none" 
	d="
M225.609467,150.490540 
	C225.676056,150.596893 225.412201,150.646713 225.412201,150.646713 
	C225.412201,150.646713 225.542877,150.384186 225.609467,150.490540 
z"/>
<path fill="#F3F6F6" opacity="1.000000" stroke="none" 
	d="
M182.511215,189.564590 
	C183.088089,189.684174 183.403580,190.025009 183.719070,190.365845 
	C183.183792,190.486404 182.648514,190.606979 181.935272,190.494629 
	C181.921478,190.103088 182.085663,189.944458 182.511215,189.564590 
z"/>
</svg>